<?xml version="1.0" standalone="no"?>
<!DOCTYPE svg PUBLIC "-//W3C//DTD SVG 20010904//EN"
 "http://www.w3.org/TR/2001/REC-SVG-20010904/DTD/svg10.dtd">
<svg version="1.0" xmlns="http://www.w3.org/2000/svg"
 width="960.000000pt" height="960.000000pt" viewBox="0 0 960.000000 960.000000"
 preserveAspectRatio="xMidYMid meet">

<g transform="translate(0.000000,960.000000) scale(0.100000,-0.100000)"
fill="#000000" stroke="none">
<path d="M1457 9589 c-550 -63 -1035 -403 -1283 -898 -90 -180 -143 -362 -164
-568 -7 -66 -10 -1160 -8 -3388 3 -3103 4 -3295 21 -3378 72 -357 231 -654
478 -893 238 -230 524 -376 862 -441 87 -17 278 -18 3437 -18 3165 0 3350 1
3437 18 344 66 616 205 862 442 248 239 410 542 478 898 17 87 18 278 18 3437
0 3159 -1 3350 -18 3437 -70 363 -231 662 -493 912 -260 248 -584 399 -949
441 -108 12 -6572 12 -6678 -1z m5793 -2314 c218 -56 379 -210 419 -403 15
-74 14 -197 -4 -265 -45 -174 -181 -311 -369 -374 -75 -25 -94 -27 -246 -27
-153 -1 -170 1 -240 26 -99 35 -159 69 -224 129 -104 94 -154 204 -163 354
-17 290 167 512 475 570 95 18 262 13 352 -10z m-1790 -2357 c425 -1179 786
-2178 801 -2221 l29 -77 -661 2 -660 3 -108 330 -107 330 -826 3 -826 2 -77
-237 c-42 -131 -90 -282 -108 -335 l-31 -98 -638 0 c-351 0 -638 3 -638 7 0 3
370 1002 823 2220 l822 2213 716 0 716 0 773 -2142z m2180 -553 l0 -1745 -590
0 -590 0 0 1745 0 1745 590 0 590 0 0 -1745z"/>
<path d="M3902 5768 c-217 -666 -442 -1371 -439 -1374 2 -2 213 -3 468 -2
l465 3 -231 712 c-126 392 -233 715 -236 718 -4 4 -16 -22 -27 -57z"/>
</g>
</svg>
